<svg xmlns="http://www.w3.org/2000/svg" width="27" height="28">
    <path fill="none" fill-rule="evenodd" stroke="#FFF" stroke-width="2" d="M5.941 1c2.729 0 4.942 2.193 4.942 4.898 0 2.705-4.942 8.816-4.942 8.816S1 8.603 1 5.898C1 3.193 3.212 1 5.941 1zM1 16c2.103 0 3.897-.026 6 0 1.959.025 4 1.981 4 4 0 2.166 3.063 4 5 4h9"/>
    <path fill="none" fill-rule="evenodd" stroke="#FFF" stroke-width="2" d="M19.706 8.543c2.924 0 5.294 2.302 5.294 5.143 0 2.84-5.294 9.257-5.294 9.257s-5.294-6.417-5.294-9.257c0-2.841 2.37-5.143 5.294-5.143z"/>
</svg>
