<svg xmlns="http://www.w3.org/2000/svg" width="23" height="22" overflow="visible" style="position:relative;top:-1.6px">
    <path fill="#FFF" fill-rule="evenodd" d="M20.208 18.522l1.752 1.773-1.484 1.474L1.028 2.423 2.512.949l3.149 3.127h17.334v14.446h-2.787zm.762-12.451H7.67l4.408 4.378c.064-.27.157-.516.28-.731.511-.874 1.421-1.322 2.551-1.322.561 0 1.051.1 1.481.269.85.367 1.381 1.102 1.42 2.285v.029h-1.89v-.039c-.05-.706-.4-1.013-1.001-1.013-.67 0-1.09.467-1.09 1.43v.159c0 .398.097.699.253.923l.215.213c.17.129.369.215.612.215.601 0 .971-.328 1.021-1.053v-.02h1.89v.05c-.03.596-.16 1.102-.41 1.47-.324.507-.836.814-1.465.975l2.254 2.239h2.771V6.071zM8.103 12.867c.412 0 .705-.168.871-.498l1.313 1.303c-.516.506-1.267.755-2.194.755-1.87 0-2.921-.974-2.921-2.891v-.179c0-.646.13-1.202.38-1.639.093-.159.213-.288.332-.419l1.288 1.279a1.985 1.985 0 0 0-.149.779v.159c0 .884.43 1.351 1.08 1.351zM2.022 6.071v10.457H5.69v1.071l1.026-1.071h6.446l2.009 1.994H7.385v.001l-3.29 3.438v-3.439H-.003V4.076h.627l2.009 1.995h-.611z"/>
</svg>
