<svg xmlns="http://www.w3.org/2000/svg" width="20" height="21">
    <path fill="#FFF" fill-rule="evenodd" d="M18.607 2.383l-1.042-1.074a3.346 3.346 0 0 0-2.412-1.03c-.873 0-1.746.343-2.412 1.03L9.795 4.347c-1.27 1.31-1.315 3.388-.163 4.77l-1.063 1.097a3.33 3.33 0 0 0-2.213-.863c-.873 0-1.746.344-2.412 1.03l-2.689 2.773c-1.332 1.374-1.332 3.601 0 4.975l1.041 1.074a3.348 3.348 0 0 0 2.412 1.03c.873 0 1.746-.343 2.413-1.03L9.81 16.43c1.27-1.31 1.314-3.387.162-4.77l1.063-1.096a3.335 3.335 0 0 0 2.213.862c.873 0 1.747-.343 2.412-1.03l2.947-3.038c1.332-1.374 1.332-3.601 0-4.975zm-10.2 12.6l-2.689 2.773a1.398 1.398 0 0 1-2.019 0l-1.041-1.074a1.483 1.483 0 0 1-.418-1.041c0-.393.148-.762.418-1.04l2.689-2.773a1.394 1.394 0 0 1 1.009-.431c.292 0 .557.114.793.281L5.37 13.512l1.403 1.447 1.778-1.833c.378.573.347 1.349-.144 1.857zm8.797-9.072l-2.947 3.038a1.394 1.394 0 0 1-1.009.431c-.292 0-.557-.114-.792-.281l2.036-2.1-1.403-1.446-2.036 2.099a1.467 1.467 0 0 1-.273-.817c0-.393.148-.763.418-1.041l2.946-3.038a1.395 1.395 0 0 1 2.018 0l1.042 1.074c.269.278.418.647.418 1.04 0 .394-.149.763-.418 1.041z"/>
</svg>
