<svg xmlns="http://www.w3.org/2000/svg" id="Layer_1" viewBox="0 0 17.3 16.9">
    <style>
        .st0{fill:#fff}
    </style>
    <path d="M15.4 9.1V7.9l.4-.3 1.5-1.1-.9-1.6-.8-1.4-.9-1.5-1.7.7-.4.2c-.3-.2-.7-.5-1.1-.6v-.5L11.3 0H6l-.2 1.8v.5c-.4.1-.8.4-1.1.6l-.4-.2L2.6 2l-.9 1.5-.8 1.4L0 6.5l1.5 1.1.4.3v1.2l-.4.3-1.5 1L.9 12l.8 1.4.9 1.6 1.7-.7.4-.3c.4.2.7.4 1.1.6v.5l.2 1.8h5.2l.2-1.8v-.5c.4-.2.8-.4 1.1-.6l.4.2 1.7.7.9-1.6.8-1.4.9-1.6-1.5-1.1-.3-.1zm-2.2.9l1.4 1-.8 1.4-1.6-.7c-.4.7-2 1.4-2.6 1.5L9.4 15H7.8l-.2-1.8c-.8-.2-2.3-.9-2.6-1.5l-1.6.7-.8-1.4L4 10c-.4-.8-.2-2.4 0-3L2.6 6l.8-1.4 1.6.7c.6-.7 1.6-1.3 2.6-1.5L7.8 2h1.6l.2 1.8c1 .1 2.3 1.1 2.6 1.5l1.6-.7.8 1.4-1.4 1c.4.8.3 2.4 0 3z" class="st0"/>
    <path d="M8.6 5.5c-1.7 0-3 1.3-3 3s1.3 3 3 3 3-1.3 3-3-1.3-3-3-3zm0 4c-.6 0-1-.4-1-1s.4-1 1-1 1 .4 1 1-.4 1-1 1z" class="st0"/>
</svg>
